<svg width="250" height="28" viewBox="0 0 250 28" fill="none" xmlns="http://www.w3.org/2000/svg">
<g clip-path="url(#clip0_1157_354)">
<path d="M21.1085 7.36816H19.7031V8.85388H21.1085V7.36816Z" fill="#FF8500"/>
<path d="M21.1085 19.2026H19.7031V20.6884H21.1085V19.2026Z" fill="#FF8500"/>
<path d="M19.7023 20.689H18.2969V22.1747H19.7023V20.689Z" fill="#FF8500"/>
<path d="M11.3234 17.7158H9.91797V19.2015H11.3234V17.7158Z" fill="#FF8500"/>
<path d="M19.7023 5.91016H18.2969V7.39587H19.7023V5.91016Z" fill="#FF8500"/>
<path d="M9.91908 10.3408H8.51367V17.7444H9.91908V10.3408Z" fill="#FF8500"/>
<path d="M11.3234 8.85449H9.91797V10.3402H11.3234V8.85449Z" fill="#FF8500"/>
<path d="M22.5128 8.85449H21.1074V11.7988H22.5128V8.85449Z" fill="#FF8500"/>
<path d="M22.5128 16.2583H21.1074V19.2026H22.5128V16.2583Z" fill="#FF8500"/>
<path d="M25.2969 2.93745V1.45101H23.8915V-0.00683594H2.91855V1.4796H1.51314V2.96603H0.134766V25.2054H1.54017V26.6061H2.94557V28.0925H23.9185V26.6061H25.3239V25.2054H26.7293V2.93745H25.3239H25.2969ZM22.4861 11.8275H18.2969V8.88319H11.2969V10.3696H9.89151V17.7732H11.2969V19.2596H18.2969V16.3154H22.4861V19.2596H21.0807V20.7461H19.6753V22.2325H8.51313V20.7461H7.10773V19.2596H5.70232V8.8546H7.10773V7.36817H8.51313V5.88173H19.7023V7.36817H21.1077V8.8546H22.5131V11.7989L22.4861 11.8275Z" fill="black"/>
<path d="M47.2972 28.2926C44.7837 28.2926 42.5404 27.6923 40.5945 26.4632C38.6485 25.234 37.108 23.5761 35.9999 21.4608C34.8918 19.3454 34.3242 16.8871 34.3242 14.1143C34.3242 11.3416 34.8918 8.88323 35.9999 6.76792C37.108 4.65261 38.6485 2.96608 40.5675 1.76549C42.5134 0.564911 44.7296 -0.0639648 47.2431 -0.0639648C49.7567 -0.0639648 50.6756 0.279059 52.2161 0.93652C53.7566 1.59398 55.081 2.5373 56.2431 3.70929C57.3783 4.90987 58.2702 6.25338 58.8918 7.79699L54.1891 9.62645C53.7567 8.65455 53.2161 7.82557 52.5134 7.11094C51.8107 6.39631 51.0269 5.8246 50.135 5.42441C49.2431 5.02422 48.2702 4.82412 47.2431 4.82412C45.7296 4.82412 44.4053 5.22431 43.2161 6.0247C42.0539 6.82509 41.135 7.91133 40.4864 9.28342C39.8377 10.6555 39.5134 12.2849 39.5134 14.1143C39.5134 15.9438 39.8377 17.5446 40.5134 18.9453C41.1891 20.3459 42.108 21.4322 43.2972 22.2326C44.4864 23.0329 45.8377 23.4331 47.3783 23.4331C48.9188 23.4331 49.4053 23.2045 50.2972 22.7757C51.1621 22.3469 51.9458 21.7466 52.6215 21.0034C53.2972 20.2316 53.8377 19.374 54.2702 18.3735L58.9729 20.1744C58.3512 21.7752 57.4594 23.1759 56.3242 24.405C55.1891 25.6342 53.8377 26.5775 52.2972 27.2636C50.7567 27.9496 49.108 28.2926 47.2972 28.2926Z" fill="black"/>
<path d="M62.7031 27.8064V0.393066H67.7842V22.9183H79.1896V27.8064H62.7031Z" fill="black"/>
<path d="M80.0801 27.8064L90.2963 0.393066H95.3774L85.4585 27.8349H80.0801V27.8064ZM84.8909 21.7749V17.0297H101.161V21.7749H84.8909ZM100.567 27.8064L90.6476 0.393066H95.7287L105.945 27.8349H100.567V27.8064Z" fill="black"/>
<path d="M109.055 27.8064V0.393066H114.352L127.028 18.802V0.393066H132.055V27.8349H127.028L114.136 9.05441V27.8349H109.055V27.8064Z" fill="black"/>
<path d="M137.703 27.8064V0.393066H142.703V27.8349H137.703V27.8064ZM140.73 20.8887L140.136 14.1426L152.298 0.393066H158.865L140.757 20.8887H140.73ZM153 27.8064L142.676 13.8567L146.352 10.6552L159.271 27.8064H153Z" fill="black"/>
<path d="M171.081 28.2927C169.784 28.2927 168.541 28.1212 167.406 27.7782C166.271 27.4351 165.244 26.9492 164.379 26.3489C163.487 25.7486 162.757 25.0625 162.162 24.2907C161.595 23.5189 161.217 22.7471 161.027 21.8896L166 20.3174C166.325 21.2035 166.892 21.9753 167.703 22.6042C168.514 23.2331 169.541 23.5761 170.784 23.6047C172.081 23.6047 173.162 23.3188 174 22.69C174.838 22.0611 175.244 21.2607 175.244 20.2602C175.244 19.2597 174.919 18.6594 174.271 18.0877C173.622 17.4874 172.73 17.0587 171.595 16.7442L168.217 15.8009C166.946 15.4579 165.838 14.9434 164.892 14.2573C163.919 13.5713 163.162 12.7137 162.622 11.6846C162.081 10.6556 161.811 9.48356 161.811 8.11147C161.811 5.53879 162.622 3.50924 164.244 2.05139C165.865 0.593539 168.162 -0.121094 171.108 -0.121094C174.054 -0.121094 174.217 0.136174 175.46 0.650709C176.703 1.16524 177.757 1.87988 178.595 2.82319C179.433 3.76651 180.081 4.88133 180.514 6.16767L175.595 7.76845C175.298 6.8823 174.757 6.1105 173.973 5.48162C173.19 4.85275 172.189 4.53831 170.973 4.53831C169.757 4.53831 168.757 4.85275 168.054 5.45304C167.352 6.05333 167 6.91089 167 7.99713C167 9.08337 167.271 9.54073 167.838 10.0267C168.406 10.5126 169.162 10.9128 170.108 11.1701L173.514 12.0848C175.73 12.6565 177.46 13.6856 178.703 15.172C179.946 16.6585 180.568 18.3164 180.568 20.1459C180.568 21.9753 180.189 23.1759 179.46 24.4051C178.73 25.6343 177.649 26.5776 176.244 27.235C174.838 27.9211 173.135 28.2641 171.135 28.2641L171.081 28.2927Z" fill="black"/>
<path d="M190.352 27.8064V5.28115H182.568V0.393066H203.163V5.28115H195.406V27.8064H190.325H190.352Z" fill="black"/>
<path d="M206.486 27.8064V0.393066H222.892V5.28115H211.567V11.5127H221.351V16.2865H211.567V22.9183H223.054V27.8064H206.486Z" fill="black"/>
<path d="M228.324 27.8064V0.393066H237.946C239.784 0.393066 241.378 0.764675 242.811 1.53648C244.216 2.30828 245.324 3.33735 246.108 4.65227C246.892 5.9672 247.297 7.5108 247.297 9.25451C247.297 10.9982 246.892 12.5132 246.054 13.8567C245.216 15.2002 244.108 16.2579 242.676 17.0011C241.243 17.7443 239.622 18.1159 237.784 18.1159H233.405V27.8349H228.324V27.8064ZM233.405 13.1993H238C238.757 13.1993 239.459 13.0278 240.054 12.6847C240.649 12.3417 241.135 11.8844 241.486 11.2841C241.838 10.6838 242.027 9.99772 242.027 9.25451C242.027 8.08251 241.622 7.13919 240.811 6.39598C240 5.65276 238.973 5.30974 237.73 5.30974H233.405V13.2279V13.1993ZM242.594 27.8064L236.594 16.801L240.486 13.8567L248.351 27.8064H242.622H242.594Z" fill="black"/>
</g>
<defs>
<clipPath id="clip0_1157_354">
<rect width="250" height="28.0136" fill="white" transform="translate(0 -0.00683594)"/>
</clipPath>
</defs>
</svg>
