<svg width="601" height="515" viewBox="0 0 601 515" fill="none" xmlns="http://www.w3.org/2000/svg">
<mask id="mask0_1127_317" style="mask-type:luminance" maskUnits="userSpaceOnUse" x="293" y="427" width="37" height="36">
<path d="M329.5 427H293.5V463H329.5V427Z" fill="white"/>
</mask>
<g mask="url(#mask0_1127_317)">
<path d="M311.5 432.5L329.1 427.3L324 444.9L329.1 462.5L311.5 457.4L293.9 462.5L299.1 444.9L293.9 427.3L311.5 432.5Z" fill="black" stroke="white" stroke-miterlimit="10"/>
</g>
<mask id="mask1_1127_317" style="mask-type:luminance" maskUnits="userSpaceOnUse" x="58" y="313" width="100" height="100">
<path d="M108.247 313.049L58.5371 362.758L108.247 412.468L157.956 362.758L108.247 313.049Z" fill="white"/>
</mask>
<g mask="url(#mask1_1127_317)">
<path d="M125.5 345.5L157 362.6L125.5 379.9L108.3 411.3L91.0996 379.9L59.5996 362.6L91.0996 345.5L108.3 314L125.5 345.5Z" fill="black" stroke="white" stroke-miterlimit="10"/>
</g>
<path d="M565.1 389.3C563.2 392.7 559.7 395.2 554.6 396.8C549.5 398.3 542.9 398.9 534.9 398.6C519 397.9 497.8 393.5 472.8 385.9C422.8 370.6 357.6 342.3 289.2 304.5C220.8 266.7 162 226.7 122.4 192.6C102.6 175.5 87.6004 159.9 78.5004 146.8C74.0004 140.2 70.9004 134.3 69.5004 129.2C68.1004 124.1 68.3004 119.7 70.2004 116.3C72.1004 112.9 75.6004 110.4 80.7004 108.8C85.8004 107.2 92.4004 106.7 100.4 107C116.3 107.7 137.5 112.1 162.5 119.7C212.5 135 277.7 163.3 346.1 201.1C414.5 238.9 473.3 278.9 512.9 313C532.7 330.1 547.7 345.7 556.8 358.8C561.3 365.3 564.4 371.3 565.8 376.4C567.2 381.5 567 385.9 565.1 389.3Z" stroke="black"/>
<path d="M544.899 426C542.999 429.4 539.499 431.9 534.399 433.5C529.299 435 522.699 435.6 514.699 435.3C498.799 434.6 477.599 430.2 452.599 422.6C402.599 407.3 337.399 379 268.999 341.2C200.599 303.4 141.799 263.4 102.199 229.3C82.3992 212.2 67.3992 196.6 58.2992 183.5C49.1992 170.4 50.6992 171.1 49.2992 165.9C47.8992 160.8 48.0992 156.4 49.9992 153C51.8992 149.6 55.3992 147.1 60.4992 145.5C65.5992 144 72.1992 143.4 80.1992 143.7C96.0992 144.4 117.299 148.8 142.299 156.4C192.299 171.7 257.499 200.1 325.899 237.8C394.299 275.5 453.099 315.6 492.699 349.7C512.499 366.8 527.499 382.4 536.599 395.5C541.099 402 544.199 408 545.599 413.1C546.999 418.2 546.799 422.6 544.899 426Z" stroke="black"/>
<path d="M524.7 462.7C522.8 466.1 519.3 468.6 514.2 470.2C509.1 471.7 502.5 472.3 494.5 472C478.6 471.3 457.4 466.9 432.4 459.3C382.4 444 317.2 415.7 248.8 377.9C180.4 340.1 121.6 300.1 82 266C42.4 231.9 47.2 233.3 38.1 220.2C33.6 213.6 30.5 207.7 29.1 202.6C27.7 197.5 27.9 193.1 29.8 189.7C31.7 186.3 35.2 183.8 40.3 182.2C45.4 180.6 52 180.1 60 180.4C75.9 181.1 97.1 185.5 122.1 193.1C172.1 208.4 237.3 236.7 305.7 274.5C374.1 312.3 432.9 352.3 472.5 386.4C492.3 403.5 507.3 419.1 516.4 432.2C520.9 438.7 524 444.7 525.4 449.8C526.8 454.9 526.6 459.3 524.7 462.7Z" stroke="black"/>
<path d="M132 120C140.56 120 147.5 113.06 147.5 104.5C147.5 95.9396 140.56 89 132 89C123.44 89 116.5 95.9396 116.5 104.5C116.5 113.06 123.44 120 132 120Z" fill="#B9FF66"/>
<path d="M421.5 445C427.023 445 431.5 440.523 431.5 435C431.5 429.477 427.023 425 421.5 425C415.977 425 411.5 429.477 411.5 435C411.5 440.523 415.977 445 421.5 445Z" fill="#B9FF66"/>
<path d="M82 88C94.9787 88 105.5 77.4787 105.5 64.5C105.5 51.5213 94.9787 41 82 41C69.0213 41 58.5 51.5213 58.5 64.5C58.5 77.4787 69.0213 88 82 88Z" fill="black"/>
<path d="M577.3 83.5999C590.4 70.4999 590.4 49.1999 577.3 36.0999C564.2 22.9999 543 22.9999 529.8 36.0999C516.7 49.1999 516.7 70.4999 529.8 83.5999C542.9 96.6999 564.1 96.6999 577.3 83.5999Z" fill="#B9FF66"/>
<path d="M553.5 94.3C534.5 94.3 519.1 78.9 519.1 59.9C519.1 40.9 534.5 25.5 553.5 25.5C572.5 25.5 587.9 40.9 587.9 59.9C587.9 78.9 572.5 94.3 553.5 94.3ZM553.5 27.1C535.5 27.1 520.8 41.7 520.8 59.8C520.8 77.9 535.4 92.5 553.5 92.5C571.6 92.5 586.2 77.8 586.2 59.8C586.2 41.8 571.6 27.1 553.5 27.1Z" fill="#B9FF66"/>
<path d="M563.1 190C578.5 179.3 582.3 158.3 571.7 143C561.1 127.7 540 124 524.7 134.6C509.4 145.2 505.5 166.3 516.1 181.6C526.7 196.9 547.8 200.6 563.1 190Z" fill="black"/>
<path d="M543.5 299.6C562.5 290.4 570.4 267.6 561.2 248.7C552 229.8 529.2 222 510.2 231.3C491.2 240.5 483.3 263.3 492.5 282.2C501.7 301.1 524.5 308.9 543.5 299.6Z" fill="#B9FF66"/>
<path d="M526.701 304.4C522.601 304.4 518.501 303.8 514.401 302.4C504.501 299.1 496.501 292.2 491.901 282.9C487.301 273.6 486.601 263.1 489.901 253.2C496.801 232.9 519.001 221.8 539.301 228.6C549.201 231.9 557.101 238.8 561.801 248.1C566.401 257.4 567.101 267.9 563.801 277.8C558.201 294.1 542.9 304.4 526.6 304.4H526.701ZM527.1 228.3C511.5 228.3 496.801 238.2 491.601 253.8C488.401 263.2 489.101 273.3 493.501 282.2C497.901 291.1 505.601 297.7 515.001 300.8C534.501 307.3 555.701 296.7 562.301 277.3C565.501 267.9 564.801 257.8 560.401 248.9C556.001 240 548.301 233.4 538.901 230.3C535.001 229 531.101 228.4 527.201 228.4L527.1 228.3Z" fill="black"/>
<path d="M533.1 264.8C536.6 261.3 536.6 255.6 533.1 252.1C529.6 248.6 523.9 248.6 520.4 252.1C516.9 255.6 516.9 261.3 520.4 264.8C523.9 268.3 529.6 268.3 533.1 264.8Z" fill="#B9FF66"/>
<path d="M382.898 191.1H367.898V206.1H382.898V191.1Z" fill="#FF8500"/>
<path d="M382.898 310.9H367.898V325.9H382.898V310.9Z" fill="#FF8500"/>
<path d="M367.898 325.8H352.898V340.8H367.898V325.8Z" fill="#FF8500"/>
<path d="M278.1 295.9H263.1V310.9H278.1V295.9Z" fill="#FF8500"/>
<path d="M367.898 176.2H352.898V191.2H367.898V176.2Z" fill="#FF8500"/>
<path d="M263.1 221.1H248.1V295.9H263.1V221.1Z" fill="#FF8500"/>
<path d="M278.1 206.1H263.1V221.1H278.1V206.1Z" fill="#FF8500"/>
<path d="M397.799 206.1H382.799V236H397.799V206.1Z" fill="#FF8500"/>
<path d="M397.799 280.9H382.799V310.8H397.799V280.9Z" fill="#FF8500"/>
<path d="M427.699 146.2V131.2H412.699V116.2H188.199V131.2H173.199V146.2H158.199V371.5H173.199V385.7H188.199V400.7H412.699V385.7H427.699V371.5H442.699V146.2H427.699ZM397.799 236H352.899V206.1H278.099V221.1H263.099V295.9H278.099V310.9H352.899V281H397.799V310.9H382.799V325.9H367.799V340.9H248.099V325.9H233.099V310.9H218.099V206.1H233.099V191.1H248.099V176.1H367.799V191.1H382.799V206.1H397.799V236Z" fill="black"/>
<path d="M167.4 471.3C184.5 471.3 198.4 457.4 198.4 440.3C198.4 423.2 184.5 409.3 167.4 409.3C150.3 409.3 137.8 421.8 136.5 437.7H177.5V442.9H136.5C137.8 458.8 151.2 471.3 167.4 471.3Z" fill="#0A0B0D"/>
<path d="M543.599 153.6L544.299 151.2L545.099 147.1C545.299 147.1 545.199 147.6 545.199 147.8C544.999 150.5 544.599 153.1 544.699 155.8C544.699 156 544.999 156.5 545.199 156.4C550.699 153.2 555.099 148.5 559.699 144.3C559.599 144.7 559.199 145 558.999 145.3C556.299 148.6 553.499 151.7 551.299 155.3L559.799 150.2C557.799 151.9 555.699 153.5 553.699 155.3C552.799 156.1 551.599 157.1 550.799 158C550.199 158.7 549.699 159 549.999 159.9C550.699 162.2 554.599 163.1 556.699 163.7L567.799 166.2L557.499 165.4C554.399 165.4 551.199 165.3 548.099 165.8C547.899 165.9 549.599 167.9 549.799 168.1C550.999 169.5 552.599 170.9 553.699 172.3C553.799 172.4 553.999 172.5 553.899 172.7C551.899 171.3 550.099 169.5 548.099 168.1C547.299 167.6 546.299 166.9 545.399 166.9C544.999 167.2 544.299 172.2 544.199 173C543.899 176.3 544.099 179.6 543.899 182.9C543.899 183.1 543.899 183.3 543.699 183.4C543.299 179.4 542.999 175.3 542.199 171.4L541.999 171.7L540.699 177.6L541.199 171C541.199 170.5 541.499 168.7 540.799 168.6C540.599 168.6 537.699 170.5 537.299 170.9C533.299 173.9 529.699 177.6 525.999 181L534.599 170L534.399 169.8L526.199 174.9C529.599 172.1 532.999 169.3 535.999 166.1C536.199 165.8 535.999 165.3 535.999 165C534.999 162.5 529.599 161.5 527.199 160.8L518.199 158.8L528.499 159.6C531.699 159.6 534.799 159.7 537.999 159.2L536.799 157.4L531.899 152C533.799 153.4 535.499 155.1 537.499 156.4C537.999 156.7 540.399 158.3 540.799 158C542.399 152.5 542.299 146.7 542.399 141L542.599 142.2C542.899 146 543.199 149.8 543.999 153.5L543.599 153.6Z" fill="white"/>
<path d="M543.9 247.6H533.6V278.7H543.9V247.6Z" fill="black"/>
<path d="M530.9 257.9H520.6V278.5H530.9V257.9Z" fill="black"/>
<path d="M517.8 268.4H507.5V278.4H517.8V268.4Z" fill="black"/>
<path d="M546.58 24.1479L474.902 49.1089L484.768 77.4402L556.446 52.4792L546.58 24.1479Z" fill="black"/>
<path d="M538.395 57.7127L484.377 76.5239L494.243 104.855L548.261 86.044L538.395 57.7127Z" fill="black"/>
<path d="M530.1 66.1997L535.1 80.5997L532.7 81.3997L523.8 73.2997L527.3 83.2997L524.9 84.0997L519.9 69.6997L522.3 68.8997L531.2 76.9997L527.7 66.9997L530.1 66.1997Z" fill="white"/>
<path d="M517.701 70.5L521.901 82.5L520.401 85.7L513.701 88L510.501 86.4L506.301 74.4L508.701 73.6L512.701 85.2C512.701 85.4 513.001 85.6 513.301 85.5L519.101 83.5C519.301 83.5 519.501 83.1 519.401 82.9L515.401 71.3L517.801 70.5H517.701Z" fill="white"/>
<path d="M504.001 75.1996L504.801 77.5996L500.501 79.0996L501.001 82.9996L506.101 81.1996L506.901 83.5996L501.301 85.4996L502.201 91.8996L499.801 92.6996L497.701 77.2996L503.901 75.0996L504.001 75.1996Z" fill="white"/>
<path d="M496.8 91.4998C497.4 91.2998 498.2 91.5998 498.4 92.2998C498.6 92.9998 498.3 93.6998 497.6 93.8998C496.9 94.0998 496.2 93.7998 496 93.0998C495.8 92.3998 496.1 91.6998 496.8 91.4998Z" fill="white"/>
<path d="M541.4 33.5996L537 42.5996L547.4 47.5996L544 48.7996L535.9 44.8996L535.2 46.2996L536.9 51.2996L534.5 52.0996L529.5 37.6996L531.9 36.8996L534 42.8996L537.9 34.7996L541.3 33.5996H541.4Z" fill="white"/>
<path d="M527.401 38.5L532.401 52.9L530.001 53.7L521.101 45.6L524.601 55.6L522.201 56.4L517.201 42L519.601 41.2L528.501 49.3L525.001 39.3L527.401 38.5Z" fill="white"/>
<path d="M512.6 43.6996L515.8 45.1996L520 57.1996L517.6 57.9996L515.5 51.9996L510.9 53.5996L513 59.5996L510.6 60.3996L506.4 48.3996L507.9 45.1996L512.5 43.5996L512.6 43.6996ZM513 46.1996L509.3 47.4996C509.1 47.4996 508.9 47.8996 509 48.0996L510.1 51.2996L514.7 49.6996L513.6 46.4996C513.6 46.2996 513.2 46.0996 513 46.1996Z" fill="white"/>
<path d="M500.8 47.7998L505 59.7998L507.5 58.8998L508.3 61.2998L503.5 62.9998L498.5 48.5998L500.9 47.7998H500.8Z" fill="white"/>
<path d="M493.8 50.1996L497 51.6996L497.9 54.2996L495.5 55.0996L494.8 52.9996C494.8 52.7996 494.4 52.5996 494.2 52.6996L488.4 54.6996C488.1 54.6996 488 55.0996 488.1 55.2996L491.1 63.9996C491.1 64.1996 491.4 64.3996 491.7 64.2996L497.5 62.2996C497.7 62.2996 497.9 61.8996 497.8 61.6996L497.1 59.5996L499.5 58.7996L500.4 61.2996L498.9 64.4996L492.2 66.7996L489 65.1996L485.6 55.5996L487.1 52.3996L493.8 50.0996V50.1996Z" fill="white"/>
</svg>
