<svg width="87" height="66" viewBox="0 0 87 66" fill="none" xmlns="http://www.w3.org/2000/svg">
<g clip-path="url(#clip0_1245_103)">
<path d="M73.6974 5.5274C67.9814 2.908 61.9471 1.04971 55.7486 0C54.9004 1.51773 54.133 3.07927 53.4494 4.67808C46.8469 3.68221 40.1325 3.68221 33.5299 4.67808C32.846 3.07943 32.0786 1.51791 31.2307 0C25.0283 1.05858 18.99 2.92128 13.2682 5.5411C1.90909 22.363 -1.17019 38.7671 0.369448 54.9384C7.02164 59.8579 14.4673 63.5994 22.3829 66C24.1652 63.6005 25.7424 61.055 27.0976 58.3904C24.5236 57.4281 22.0392 56.2409 19.6731 54.8425C20.2958 54.3904 20.9048 53.9247 21.4933 53.4726C28.3779 56.7133 35.8921 58.3936 43.4999 58.3936C51.1078 58.3936 58.622 56.7133 65.5065 53.4726C66.1019 53.9589 66.7109 54.4247 67.3267 54.8425C64.9561 56.2432 62.4672 57.4327 59.8886 58.3973C61.2421 61.0606 62.8194 63.604 64.6033 66C72.5256 63.609 79.977 59.8693 86.6304 54.9452C88.4369 36.1918 83.5443 19.9384 73.6974 5.5274ZM29.0478 44.9932C24.7574 44.9932 21.2128 41.0959 21.2128 36.3014C21.2128 31.5068 24.6342 27.5753 29.0341 27.5753C33.4341 27.5753 36.9513 31.5068 36.8761 36.3014C36.8008 41.0959 33.4204 44.9932 29.0478 44.9932ZM57.952 44.9932C53.6547 44.9932 50.1238 41.0959 50.1238 36.3014C50.1238 31.5068 53.5452 27.5753 57.952 27.5753C62.3588 27.5753 65.8487 31.5068 65.7734 36.3014C65.6981 41.0959 62.3246 44.9932 57.952 44.9932Z" fill="black"/>
</g>
<defs>
<clipPath id="clip0_1245_103">
<rect width="87" height="66" fill="white"/>
</clipPath>
</defs>
</svg>
