<svg width="66" height="65" viewBox="0 0 66 65" fill="none" xmlns="http://www.w3.org/2000/svg">
<g clip-path="url(#clip0_1243_91)">
<path d="M52.75 0H13.75C6.5703 0 0.75 5.8203 0.75 13V52C0.75 59.1797 6.5703 65 13.75 65H52.75C59.9297 65 65.75 59.1797 65.75 52V13C65.75 5.8203 59.9297 0 52.75 0Z" fill="black"/>
<path d="M17.5059 10.1113H48.9947V54.889H44.3725V34.378H44.3272C43.8163 28.7092 39.0521 24.2668 33.2503 24.2668C27.4485 24.2668 22.6843 28.7092 22.1734 34.378H22.1281V54.889H17.5059V10.1113Z" fill="white"/>
<path d="M9.12695 16.4668L11.0047 22.8224H12.5936V48.5335C11.7959 48.5335 11.1492 49.1802 11.1492 49.9779V51.7113H10.8603C10.0626 51.7113 9.41581 52.358 9.41581 53.1557V54.889H25.5936V53.1557C25.5936 52.358 24.9469 51.7113 24.1492 51.7113H23.8603V49.9779C23.8603 49.1802 23.2136 48.5335 22.4158 48.5335H20.6825V16.4668H9.12695Z" fill="white"/>
<path d="M44.6602 48.5335C43.8625 48.5335 43.2157 49.1802 43.2157 49.9779V51.7113H42.9269C42.1291 51.7113 41.4824 52.358 41.4824 53.1557V54.889H57.6602V53.1557C57.6602 52.358 57.0135 51.7113 56.2157 51.7113H55.9269V49.9779C55.9269 49.1802 55.2802 48.5335 54.4824 48.5335V22.8224H56.0713L57.9491 16.4668H46.3935V48.5335H44.6602Z" fill="white"/>
</g>
<defs>
<clipPath id="clip0_1243_91">
<rect width="65" height="65" fill="white" transform="translate(0.75)"/>
</clipPath>
</defs>
</svg>
