<svg width="40" height="40" viewBox="0 0 40 40" fill="none" xmlns="http://www.w3.org/2000/svg">
<g clip-path="url(#clip0_1445_96)">
<path d="M31.5768 10.5273H29.4727V12.6315H31.5768V10.5273Z" fill="#FF8500"/>
<path d="M31.5768 27.3682H29.4727V29.4723H31.5768V27.3682Z" fill="#FF8500"/>
<path d="M29.4714 29.4727H27.3672V31.5768H29.4714V29.4727Z" fill="#FF8500"/>
<path d="M16.8405 25.2637H14.7363V27.3678H16.8405V25.2637Z" fill="#FF8500"/>
<path d="M29.4714 8.42383H27.3672V10.528H29.4714V8.42383Z" fill="#FF8500"/>
<path d="M14.737 14.7363H12.6328V25.2641H14.737V14.7363Z" fill="#FF8500"/>
<path d="M16.8405 12.6318H14.7363V14.736H16.8405V12.6318Z" fill="#FF8500"/>
<path d="M33.6803 12.6318H31.5762V16.8402H33.6803V12.6318Z" fill="#FF8500"/>
<path d="M33.6803 23.1602H31.5762V27.3685H33.6803V23.1602Z" fill="#FF8500"/>
<path d="M37.8958 4.20833V2.10417H35.7917V0H4.20833V2.10417H2.10417V4.20833H0V35.8958H2.10417V37.8889H4.20833V39.9931H35.7847V37.8889H37.8889V35.8958H39.9931V4.20833H37.8889H37.8958ZM33.6875 16.8403H27.375V12.6319H16.8472V14.7361H14.7431V25.2639H16.8472V27.3681H27.375V23.1597H33.6875V27.3681H31.5833V29.4722H29.4792V31.5764H12.6389V29.4722H10.5347V27.3681H8.43056V12.6319H10.5347V10.5278H12.6389V8.42361H29.4792V10.5278H31.5833V12.6319H33.6875V16.8403Z" fill="white"/>
</g>
<defs>
<clipPath id="clip0_1445_96">
<rect width="40" height="40" fill="white"/>
</clipPath>
</defs>
</svg>
