<svg width="66" height="66" viewBox="0 0 66 66" fill="none" xmlns="http://www.w3.org/2000/svg">
<path d="M56.5886 10.0499C56.5886 10.0499 61.85 7.96674 61.4115 13.0258C61.2654 15.1089 59.9501 22.3998 58.927 30.286L55.4194 53.6469C55.4194 53.6469 55.1272 57.0691 52.4965 57.6643C49.8657 58.2594 45.9198 55.5812 45.189 54.986C44.6044 54.5396 34.228 47.8438 30.5741 44.5703C29.5511 43.6776 28.3819 41.892 30.7203 39.8089L46.0659 24.9294C47.8197 23.1439 49.5735 18.9776 42.266 24.0366L21.8052 38.1722C21.8052 38.1722 19.4669 39.6601 15.0825 38.321L5.58276 35.3451C5.58276 35.3451 2.07518 33.1132 8.06729 30.8811C22.6822 23.8877 40.6585 16.7456 56.5886 10.0499Z" fill="black"/>
</svg>
